<svg xmlns="http://www.w3.org/2000/svg" width="19.028" height="17" viewBox="0 0 19.028 17">
    <g data-name="Group 12836">
        <path data-name="Path 17407" d="m8.316 8.408-.772-1.127a2.1 2.1 0 0 1 3.049-2.814l2.581 2.089a9.521 9.521 0 0 1 1.09-1A4.7 4.7 0 0 1 16.692 4.5a5.992 5.992 0 0 1 4.855 2.327 1.9 1.9 0 0 1 .378 1.883 2.142 2.142 0 0 1-1.342 1.32l-5.371 1.852L12.05 16.1a2.249 2.249 0 0 1-4.006-1.78l.256-1.284-2.53.546A2.283 2.283 0 0 1 3 11.351V7.692a1.691 1.691 0 0 1 3.176-.81l.966 1.771zm.466-1.975 1.125 1.644 1.9-.4a1.3 1.3 0 0 0 .266-.087L9.649 5.633a.6.6 0 0 0-.867.8zM16.808 6a3.239 3.239 0 0 0-1.628.749 8.936 8.936 0 0 0-1.361 1.341 3.049 3.049 0 0 1-1.708 1.06L6.9 10.235a.75.75 0 0 1-.811-.375L4.859 7.6a.191.191 0 0 0-.359.092v3.659a.783.783 0 0 0 .949.766l3.643-.787a.75.75 0 0 1 .894.877l-.47 2.4a.749.749 0 0 0 1.334.593l3.3-4.4a.75.75 0 0 1 .356-.259l5.588-1.927a.644.644 0 0 0 .411-.385.4.4 0 0 0-.088-.414A4.514 4.514 0 0 0 16.808 6z" style="fill:#fff" transform="translate(-3 -4)"/>
        <path data-name="Path 17408" d="M3.75 19.5a.75.75 0 0 0 0 1.5h16.5a.75.75 0 0 0 0-1.5z" style="fill:#fff" transform="translate(-3 -4)"/>
    </g>
</svg>
